<svg width="62" height="55" viewBox="0 0 62 55" fill="none" xmlns="http://www.w3.org/2000/svg">
<path d="M18.2898 0.260647C15.5841 0.999245 14.1875 2.25921 14.5367 3.64951C14.7549 4.56189 15.0604 4.73568 16.3696 4.73568C17.5915 4.73568 18.2898 5.08326 19.6427 6.38666C20.5591 7.3425 21.3446 8.42867 21.3446 8.86314C21.3446 9.29761 21.6501 9.99276 22.0429 10.4272C22.6539 11.1224 22.8284 11.0355 24.3995 9.4714C25.316 8.55901 26.1888 7.77696 26.3634 7.77696C26.4943 7.77696 27.018 7.42939 27.4544 6.99492C28.589 5.95219 27.8908 5.08326 25.2723 4.34466C22.2611 3.47572 21.4319 2.9978 20.9082 1.6944C20.3845 0.434435 19.4681 -0.0434814 18.2898 0.260647Z" fill="#99607F"/>
<path d="M24.6181 0.260573C22.9161 0.695042 22.567 2.12879 24.1817 2.12879C24.7927 2.12879 25.2728 2.30258 25.2728 2.56326C25.2728 2.78049 25.8401 2.99773 26.5383 2.99773C27.3239 2.99773 28.284 3.47565 29.1568 4.25769C30.3787 5.38731 30.5969 5.43076 32.0371 4.99629C33.6518 4.47492 33.9573 3.77977 32.9536 2.73705C32.2117 2.0419 31.3825 1.91156 31.3825 2.56326C31.3825 2.78049 30.8151 2.99773 30.0733 2.99773C29.0695 2.99773 28.764 2.78049 28.764 2.17224C28.764 1.69432 28.1967 1.08606 27.2802 0.651595C26.4511 0.260573 25.7092 -0.000108573 25.6219 -0.000108573C25.5782 0.0433384 25.0982 0.173679 24.6181 0.260573Z" fill="#99607F"/>
<path d="M8.42788 6.34303C6.50768 8.12435 5.06753 10.6008 4.58748 12.947C4.15108 15.38 5.98399 23.4177 8.16604 28.1968C8.86429 29.7175 8.86429 29.7175 9.16978 28.6313C9.34434 28.023 9.47526 26.5458 9.5189 25.3728C9.60619 21.3757 10.6972 19.0295 12.9229 17.8565C14.3194 17.1179 15.585 17.2048 17.0251 18.2475C17.7234 18.7254 18.2907 18.9861 18.2907 18.7688C18.2907 18.5951 18.8144 18.0737 19.5127 17.6392C20.691 16.8137 20.691 16.7703 20.4291 13.5118C20.1236 9.03673 18.9453 6.90784 16.8506 6.90784C15.7159 6.90784 14.7994 8.34158 14.7994 10.1664C14.7994 10.9484 14.5812 11.2525 13.9266 11.2525C13.1847 11.2525 13.0538 10.9918 13.0975 9.60154C13.0975 8.73261 13.272 7.60299 13.4466 7.12507C14.0139 5.77822 13.2284 4.73549 11.6137 4.73549C10.6099 4.73549 9.73711 5.16996 8.42788 6.34303Z" fill="#99607F"/>
<path d="M36.4018 5.47339C35.6599 5.86441 34.9617 6.38577 34.7871 6.64646C33.7834 8.21055 33.3033 8.64501 32.6051 8.64501C32.125 8.64501 31.8195 8.34089 31.8195 7.77608C31.8195 6.86369 31.1649 6.60301 30.7285 7.34161C30.5976 7.55884 30.0739 7.77608 29.5938 7.77608C29.1574 7.77608 28.7647 7.94986 28.7647 8.21055C28.7647 8.42778 28.5464 8.64501 28.2846 8.64501C27.63 8.64501 23.9642 12.1642 23.2659 13.5111C22.1749 15.64 22.3931 15.8572 25.4916 15.9441C27.8482 15.9441 28.5901 16.1613 30.0302 17.2041C30.9903 17.8558 31.9941 18.9419 32.2996 19.5936C33.1724 21.7225 33.827 21.3315 37.842 16.4655C38.7148 15.3793 39.7185 14.2497 40.024 13.9021C40.9841 12.9028 42.1624 10.2091 41.9442 9.51395C41.8133 9.16638 41.3769 8.55812 40.8968 8.1671C40.4604 7.77608 40.1113 7.16782 40.1113 6.82024C40.1113 6.51612 39.5876 5.90786 38.8893 5.51684C37.7983 4.86513 37.5801 4.86513 36.4018 5.47339Z" fill="#99607F"/>
<path d="M43.9073 6.7768C43.4273 6.90714 43.209 7.25472 43.34 7.64574C43.4709 7.99332 43.6018 8.38434 43.6018 8.47123C43.6018 8.55813 44.7801 8.64502 46.2203 8.64502C47.6604 8.64502 48.8387 8.51468 48.8387 8.38434C48.8387 7.34161 45.6966 6.29889 43.9073 6.7768Z" fill="#99607F"/>
<path d="M51.7624 9.77522C51.6315 9.90557 51.8933 10.4269 52.3734 10.9483C52.8098 11.4262 53.2025 12.2951 53.2025 12.9034C53.2025 13.4682 53.4644 14.2068 53.7699 14.5109C55.7337 16.7267 56.301 18.2908 56.4756 22.1576C56.6502 25.503 57.3048 26.5457 57.8721 24.4168C58.3958 22.5052 58.2212 15.5537 57.5666 13.642C56.6065 10.6007 55.5591 9.51454 53.6826 9.51454C52.7661 9.51454 51.937 9.64488 51.7624 9.77522Z" fill="#99607F"/>
<path d="M43.4272 11.7739C43.1217 12.5559 42.4671 13.6421 42.0307 14.1634C41.5506 14.6848 40.8087 15.6406 40.3287 16.2923C39.8486 16.9875 38.103 18.8557 36.4883 20.4632C33.5207 23.3742 32.997 24.721 34.7426 24.721C37.0992 24.7645 38.3648 27.5016 38.3648 32.498C38.3648 34.6269 38.5394 36.4952 38.7576 36.6689C38.9758 36.7993 39.8486 36.4952 40.6342 36.0172C41.4197 35.5393 42.8162 34.8007 43.7327 34.4097C44.6055 33.9752 45.3474 33.4973 45.3474 33.3235C45.3474 33.1063 45.6529 32.976 46.002 32.976C46.3511 32.976 46.6566 32.7587 46.6566 32.5415C46.6566 32.2808 47.0494 32.107 47.5294 32.107C48.0095 32.107 48.4022 31.8898 48.4022 31.6726C48.4022 31.4119 48.7077 31.2381 49.0568 31.2381C49.406 31.2381 49.7115 31.1077 49.7115 30.8905C49.7115 30.7167 50.3661 30.2388 51.1516 29.8043C53.5955 28.4575 54.1628 27.8492 54.512 26.1548C55.2975 22.8528 53.6391 16.0317 52.1117 16.0317C51.6753 16.0317 51.5444 15.5537 51.588 14.3372C51.6753 11.7304 49.8424 10.3836 46.2638 10.3836C44.1691 10.3836 43.9945 10.4705 43.4272 11.7739Z" fill="#99607F"/>
<path d="M1.00852 13.2933C0.00478446 15.3788 -0.344343 21.4179 0.397552 24.1985C0.921243 26.197 3.36513 31.0631 4.45615 32.3665C6.02723 34.2347 9.56214 37.7539 9.86762 37.7539C10.0858 37.7539 10.5222 38.1449 10.8714 38.6229C11.2205 39.1008 11.4326 39.0344 11.8003 39.1482C12.0976 39.3633 12.0976 39.3633 12.3677 39.5827C12.6378 39.802 12.7626 40.0211 13.0223 40.0171C13.3714 40.0171 13.6769 40.1475 13.6769 40.3647C13.6769 40.5385 14.6245 41.4035 15.4537 41.8379C16.2828 42.3159 16.9811 42.8372 16.9811 43.0545C16.9811 43.2282 17.2866 43.402 17.6357 43.402C17.9848 43.402 18.2903 43.5758 18.2903 43.8365C18.2903 44.0537 18.5958 44.271 18.9449 44.271C19.2941 44.271 19.5995 44.4448 19.5995 44.7054C19.5995 44.9227 19.9923 45.1399 20.4724 45.1399C20.9524 45.1399 21.3452 45.2702 21.3452 45.444C21.3452 45.6613 22.5671 46.3564 24.0946 47.0516C25.5783 47.7467 27.1494 48.4853 27.5422 48.6591C27.9786 48.8763 28.7205 49.0501 29.1569 49.0501C29.6369 49.0501 30.1606 49.2239 30.2916 49.4846C30.6407 50.0494 39.9798 50.0494 40.329 49.4846C40.4599 49.2674 40.9836 49.0501 41.42 49.0501C42.3364 49.0501 46.3514 46.9647 46.5696 46.3564C46.6569 46.1826 47.006 46.0088 47.3551 46.0088C47.7043 46.0088 47.9661 45.7916 47.9661 45.5744C47.9661 45.3137 48.228 45.1399 48.5334 45.1399C48.8389 45.1399 49.3626 44.7489 49.7117 44.271C50.0609 43.793 50.4973 43.402 50.7155 43.402C50.9337 43.402 52.6357 41.8814 54.4686 40.0132C58.1781 36.1898 60.491 32.1058 60.9275 28.6301C61.1457 26.5881 61.102 26.4577 60.2292 26.4577C59.7055 26.4577 58.8763 26.8488 58.3526 27.2832C57.8726 27.7611 56.2142 28.8908 54.6868 29.7597C53.1594 30.6721 51.8938 31.541 51.8938 31.7583C51.8938 31.932 51.501 32.1058 51.021 32.1058C50.5409 32.1058 50.1482 32.2796 50.1482 32.5403C50.1482 32.7575 49.8427 32.9748 49.4935 32.9748C49.1444 32.9748 48.8389 33.1051 48.8389 33.3223C48.8389 33.4961 48.0098 34.0175 47.0497 34.4954C44.1257 35.8857 43.602 36.1898 43.602 36.5374C43.602 36.7546 43.2093 36.885 42.7292 36.885C42.2492 36.885 41.8564 37.0588 41.8564 37.3195C41.8564 37.5367 41.4636 37.7539 40.9836 37.7539C40.5035 37.7539 40.1108 37.9277 40.1108 38.1884C40.1108 38.4056 39.8053 38.6229 39.4125 38.6229C38.6706 38.6229 37.4923 39.6221 37.4923 40.3173C37.4923 40.8387 35.7903 43.8365 35.0484 44.5751C34.7429 44.8792 34.3065 45.1399 34.0447 45.1399C33.7828 45.1399 33.5646 45.2702 33.5646 45.444C33.5646 45.6613 33.0846 46.0088 32.4736 46.2695C30.9898 46.9647 30.2043 46.0523 31.3826 45.0096C31.8626 44.6185 32.3863 44.271 32.5172 44.271C32.9973 44.271 33.9574 43.0545 35.3103 40.6649C36.6631 38.2318 36.7068 38.145 36.5322 33.0617C36.4449 28.9777 36.2704 27.7611 35.6594 27.1963C34.8739 26.4143 33.1282 26.197 33.1282 26.8922C33.1282 27.1094 32.7791 27.3267 32.299 27.3267C31.6008 27.3267 31.5571 27.066 31.7317 25.1978C31.9936 22.3303 31.6008 21.0269 30.0734 19.5497C28.1968 17.8118 25.4911 17.1166 23.1781 17.8118C22.1744 18.0725 20.996 18.6807 20.516 19.1586C20.0359 19.5931 19.425 19.9407 19.2068 19.9407C18.9886 19.9407 18.6394 20.3317 18.5085 20.8096C18.1594 21.8524 16.5447 21.9827 16.5447 20.9834C16.5447 20.1145 15.4973 19.0718 14.5808 19.0718C13.5771 19.0718 11.9624 20.8531 11.5696 22.2868C11.0023 24.5026 11.2205 30.9328 11.9187 33.974C12.7916 37.7105 12.7916 37.7539 11.7442 37.7539C11.2205 37.7539 10.8714 37.4498 10.8714 36.9719C10.8714 36.2333 9.30029 33.3658 8.68932 32.9748C8.12199 32.6272 5.59082 26.8922 4.67436 23.8509C3.80154 21.1572 3.23421 18.1594 2.75416 13.7278C2.62324 12.5982 2.36139 11.6858 2.14319 11.6858C1.96862 11.6858 1.44493 12.4244 1.00852 13.2933Z" fill="#99607F"/>
<path d="M23.588 48.1197C23.4283 48.3829 24.1317 54.3849 25.5699 54.8237C28.1663 52.8443 27.5814 50.4156 27.4673 49.7725C26.9715 49.2319 26.6741 49.6554 26.6741 49.6554C25.3692 52.6886 26.3204 51.8849 25.0494 49.0408C25.0494 49.0408 24.3948 47.8119 23.588 48.1197Z" fill="#99607F"/>
<path d="M4.85664 35.9757C4.34609 36.089 1.96942 37.9559 3.27523 43.1791C5.97944 40.8612 8.68366 40.8612 9.84263 40.8613C11.2022 40.2083 7.91103 38.5433 7.91103 38.5433C4.43417 38.157 2.88891 44.7244 5.59313 36.9981C5.59313 36.9981 5.26508 35.885 4.85664 35.9757Z" fill="#99607F"/>
</svg>
