<svg width="146" height="146" viewBox="0 0 146 146" fill="none" xmlns="http://www.w3.org/2000/svg">
<path d="M24.4126 69.9189V118.586C24.4126 121.813 25.6944 124.907 27.9761 127.189C30.2578 129.471 33.3525 130.752 36.5792 130.752H109.579C112.806 130.752 115.901 129.471 118.182 127.189C120.464 124.907 121.746 121.813 121.746 118.586V69.9189" stroke="white" stroke-width="6" stroke-linecap="round" stroke-linejoin="round"/>
<path d="M73.0791 36.4607C73.0791 30.8138 70.8359 25.3981 66.8429 21.4051C62.85 17.4122 57.4343 15.1689 51.7874 15.1689C47.7539 15.1689 43.8856 16.7713 41.0335 19.6234C38.1814 22.4755 36.5791 26.3438 36.5791 30.3773C36.5791 34.4108 38.1814 38.2791 41.0335 41.1313C43.8856 43.9834 47.7539 45.5857 51.7874 45.5857H73.0791M73.0791 36.4607V45.5857M73.0791 36.4607C73.0791 30.8138 75.3223 25.3981 79.3153 21.4051C83.3083 17.4122 88.7239 15.1689 94.3708 15.1689C98.4043 15.1689 102.273 16.7713 105.125 19.6234C107.977 22.4755 109.579 26.3438 109.579 30.3773C109.579 32.3745 109.186 34.3522 108.421 36.1973C107.657 38.0425 106.537 39.719 105.125 41.1313C103.712 42.5435 102.036 43.6637 100.191 44.428C98.3456 45.1923 96.368 45.5857 94.3708 45.5857H73.0791" stroke="white" stroke-width="6" stroke-linejoin="round"/>
<path d="M73.0791 69.9192V130.753M18.3291 45.5859H127.829V69.9192H18.3291V45.5859Z" stroke="white" stroke-width="6" stroke-linecap="round" stroke-linejoin="round"/>
</svg>
