<svg width="146" height="146" viewBox="0 0 146 146" fill="none" xmlns="http://www.w3.org/2000/svg">
<path d="M86.8218 63.5404L109.501 12.1665M56.6727 64.678L30.417 12.1665M77.6359 61.1253L53.7466 12.1665M87.3571 12.1665L81.0304 27.3749M36.5003 97.3334C36.5003 107.014 40.3459 116.298 47.191 123.143C54.0361 129.988 63.32 133.834 73.0004 133.834C82.6809 133.834 91.9648 129.988 98.8099 123.143C105.655 116.298 109.501 107.014 109.501 97.3334C109.501 87.653 105.655 78.3691 98.8099 71.524C91.9648 64.6789 82.6809 60.8333 73.0004 60.8333C63.32 60.8333 54.0361 64.6789 47.191 71.524C40.3459 78.3691 36.5003 87.653 36.5003 97.3334Z" stroke="white" stroke-width="6" stroke-linecap="round" stroke-linejoin="round"/>
<path d="M64.7656 84.876L71.3508 71.6143C71.5425 71.2305 71.8373 70.9077 72.2022 70.682C72.5671 70.4564 72.9876 70.3369 73.4166 70.3369C73.8456 70.3369 74.2661 70.4564 74.631 70.682C74.9959 70.9077 75.2907 71.2305 75.4824 71.6143L82.0676 84.876L96.7893 87.0153C97.2139 87.0742 97.6135 87.2513 97.9423 87.5263C98.2711 87.8014 98.5159 88.1634 98.6489 88.5709C98.7818 88.9785 98.7975 89.4152 98.6941 89.8313C98.5908 90.2473 98.3725 90.6259 98.0643 90.9239L87.4134 101.24L89.9278 115.815C90.2497 117.686 88.2726 119.11 86.582 118.228L73.4166 111.344L60.2487 118.228C58.5606 119.113 56.5835 117.686 56.9054 115.812L59.4198 101.238L48.7689 90.9213C48.4622 90.6232 48.2453 90.245 48.1428 89.8296C48.0403 89.4143 48.0564 88.9786 48.1892 88.572C48.322 88.1654 48.5662 87.8042 48.8941 87.5294C49.2219 87.2547 49.6203 87.0774 50.0439 87.0178L64.7656 84.876Z" stroke="white" stroke-width="6.25" stroke-linecap="round" stroke-linejoin="round"/>
</svg>
