<svg width="146" height="146" viewBox="0 0 146 146" fill="none" xmlns="http://www.w3.org/2000/svg">
<path d="M18.25 66.2311C18.25 43.2909 18.25 31.8177 25.3797 24.6941C32.5093 17.5705 43.9764 17.5645 66.9167 17.5645H79.0833C102.024 17.5645 113.497 17.5645 120.62 24.6941C127.744 31.8238 127.75 43.2909 127.75 66.2311V78.3978C127.75 101.338 127.75 112.811 120.62 119.935C113.491 127.058 102.024 127.064 79.0833 127.064H66.9167C43.9764 127.064 32.5032 127.064 25.3797 119.935C18.2561 112.805 18.25 101.338 18.25 78.3978V66.2311Z" stroke="white" stroke-width="6"/>
<path fill-rule="evenodd" clip-rule="evenodd" d="M115.571 86.2453L113.478 84.1587L113.387 84.0613C110.948 81.628 108.983 79.6631 107.255 78.2092C105.479 76.7127 103.751 75.569 101.725 74.9607C98.8608 74.0967 95.8052 74.0967 92.9409 74.9607C90.9151 75.569 89.1875 76.7127 87.405 78.2092C85.6835 79.6631 83.7186 81.628 81.2791 84.0613L81.1879 84.1587C79.3629 85.9837 78.1462 87.2003 77.1547 88.0155C76.1752 88.8246 75.7494 88.9584 75.573 88.9888C74.8393 89.1175 74.0838 88.9725 73.4499 88.5812C73.3039 88.4839 72.9572 88.2041 72.3488 87.0908C71.508 85.4305 70.7367 83.7359 70.0372 82.0113L69.7148 81.2569L69.6357 81.0805C67.4213 75.9097 65.6572 71.7913 63.9417 68.7435C62.1958 65.6411 60.2552 63.1773 57.4629 61.7781C54.9607 60.5245 52.161 59.9856 49.3721 60.2208C46.2514 60.4824 43.5382 62.0458 40.7642 64.2784C38.0389 66.4745 34.8695 69.6378 30.891 73.6224L30.7572 73.7501L30.4165 74.0969V82.6987L35.0581 78.051C39.2008 73.9144 42.1391 70.9822 44.5785 69.0173C47.0118 67.0646 48.5631 66.3954 49.877 66.2798C51.5526 66.1383 53.2347 66.4625 54.7376 67.2166C55.9178 67.8067 57.1101 69.0051 58.637 71.7244C60.1761 74.4619 61.8125 78.2639 64.1181 83.6477L64.4466 84.4081L64.5074 84.548C65.4443 86.738 66.2351 88.5873 67.0016 89.9987C67.7924 91.4526 68.7658 92.8335 70.2501 93.7521C72.1543 94.9309 74.4256 95.3683 76.6315 94.9809C78.347 94.6767 79.7583 93.7521 81.0297 92.6997C82.2707 91.6777 83.6942 90.2542 85.3854 88.563L85.4888 88.4596C88.0438 85.9046 89.8262 84.1283 91.3288 82.8629C92.8009 81.6159 93.7986 81.0562 94.699 80.7824C96.4144 80.2654 98.2516 80.2654 99.9671 80.7824C100.867 81.0562 101.865 81.6159 103.337 82.8568C104.84 84.1283 106.622 85.9046 109.177 88.4596L115.437 94.7132C115.516 92.2191 115.553 89.4207 115.571 86.2453Z" fill="white"/>
<path d="M100.375 54.0645C105.415 54.0645 109.5 49.9791 109.5 44.9395C109.5 39.8999 105.415 35.8145 100.375 35.8145C95.3354 35.8145 91.25 39.8999 91.25 44.9395C91.25 49.9791 95.3354 54.0645 100.375 54.0645Z" fill="white"/>
</svg>
