<?xml version="1.0" standalone="no"?>
<!DOCTYPE svg PUBLIC "-//W3C//DTD SVG 20010904//EN"
 "http://www.w3.org/TR/2001/REC-SVG-20010904/DTD/svg10.dtd">
<svg version="1.0" xmlns="http://www.w3.org/2000/svg"
 width="227.000000pt" height="60.000000pt" viewBox="0 0 227.000000 60.000000"
 preserveAspectRatio="xMidYMid meet">

<g transform="translate(0.000000,60.000000) scale(0.100000,-0.100000)"
fill="#000000" stroke="none">
<path d="M794 519 c-26 -13 -54 -60 -54 -92 0 -14 -7 -28 -16 -31 -37 -14
-118 -4 -211 27 -128 42 -204 43 -283 5 -62 -31 -92 -65 -111 -126 -35 -117
75 -213 190 -166 37 16 47 25 49 47 4 32 -15 37 -20 5 -7 -54 -136 -57 -171
-5 -54 83 -16 177 93 226 65 30 124 26 245 -15 85 -28 118 -35 171 -33 l66 2
21 -39 c62 -111 256 -126 462 -36 44 19 98 42 120 52 85 37 167 60 216 60 54
0 149 -34 149 -54 0 -6 -16 -24 -35 -39 -37 -29 -47 -71 -23 -95 13 -13 67
-16 84 -4 22 14 35 54 32 95 l-3 42 50 13 c28 7 92 13 144 15 65 1 96 6 99 15
8 26 -242 8 -289 -21 -15 -9 -24 -9 -41 2 -128 82 -227 80 -423 -6 -182 -80
-212 -88 -325 -88 -93 0 -109 3 -143 24 -21 13 -44 36 -52 52 -15 28 -14 29
17 45 45 22 88 64 88 85 0 41 -49 60 -96 38z m56 -24 c16 -19 -6 -47 -51 -65
-37 -16 -42 -11 -29 26 19 50 56 68 80 39z m898 -209 c5 -36 -24 -68 -57 -64
-37 4 -38 33 -2 69 36 35 55 34 59 -5z"/>
</g>
</svg>
